<?xml version="1.0" encoding="UTF-8" standalone="no"?>
<svg width="80px" height="80px" viewBox="0 0 80 80" version="1.1" xmlns="http://www.w3.org/2000/svg" xmlns:xlink="http://www.w3.org/1999/xlink" xmlns:sketch="http://www.bohemiancoding.com/sketch/ns">
    <!-- Generator: Sketch 3.3.2 (12043) - http://www.bohemiancoding.com/sketch -->
    <title>Artboard 1</title>
    <desc>Created with Sketch.</desc>
    <defs></defs>
    <g id="Page-1" stroke="none" stroke-width="1" fill="none" fill-rule="evenodd" sketch:type="MSPage">
        <g id="Artboard-1" sketch:type="MSArtboardGroup">
            <g id="export" sketch:type="MSLayerGroup" transform="translate(20.000000, 20.000000)">
                <rect id="Rectangle-path" sketch:type="MSShapeGroup" x="0" y="0" width="40" height="40"></rect>
                <path d="M30.244,30.894 L4.502,30.894 L4.502,13.072 L9.64,13.072 C9.64,13.072 11.006,11.296 13.936,9.112 L2.52,9.112 C1.426,9.112 0.54,9.998 0.54,11.092 L0.54,32.874 C0.54,33.968 1.426,34.854 2.52,34.854 L32.224,34.854 C33.318,34.854 34.204,33.968 34.204,32.874 L34.204,25.456 L30.244,28.714 L30.244,30.894 L30.244,30.894 Z M27,17.13 L27,24.162 L40.144,13.864 L27,3.964 L27,10.164 C11.036,10.164 11.036,25.946 11.036,25.946 C15.554,18.522 18.336,17.13 27,17.13 L27,17.13 Z" id="Shape" fill="#000000" sketch:type="MSShapeGroup"></path>
            </g>
        </g>
    </g>
</svg>